<svg t="1702391980413" class="icon" viewBox="0 0 1024 1024" version="1.1" xmlns="http://www.w3.org/2000/svg" p-id="1079" width="200" height="200"><path d="M923.5456 393.9328a25.6 25.6 0 0 1-23.3472-15.0528 186.7776 186.7776 0 0 0-40.5504-57.4464 25.6 25.6 0 1 1 35.5328-36.8128 237.8752 237.8752 0 0 1 51.6608 73.0624 25.6 25.6 0 0 1-12.6976 33.8944 26.0096 26.0096 0 0 1-10.5984 2.3552z" fill="#FF64C8" p-id="1080"></path><path d="M398.7456 504.064H340.6848V446.0032a25.6 25.6 0 0 0-51.2 0v58.0608H231.424a25.6 25.6 0 0 0 0 51.2h58.0608v58.0608a25.6 25.6 0 0 0 51.2 0v-58.0608h58.0608a25.6 25.6 0 0 0 0-51.2zM708.7616 625.8176a102.7072 102.7072 0 1 1 102.7584-102.7072 102.8096 102.8096 0 0 1-102.7584 102.7072z m0-154.2144a51.5072 51.5072 0 1 0 51.5584 51.5072 51.5584 51.5584 0 0 0-51.5584-51.5072z" fill="#585266" p-id="1081"></path><path d="M942.5408 430.848a25.6 25.6 0 0 0-25.6 25.6v358.8608a79.7184 79.7184 0 0 1-79.616 79.616h-58.4192a80.3328 80.3328 0 0 1-72.3456-46.7456c-33.024-69.0688-109.312-113.664-194.56-113.664s-161.3824 44.5952-194.56 113.664a80.3328 80.3328 0 0 1-72.4992 46.7456H184.9856a79.7184 79.7184 0 0 1-79.616-79.616V456.448A187.6992 187.6992 0 0 1 292.864 268.9536h436.6336a186.112 186.112 0 0 1 69.7344 13.4144 25.6 25.6 0 0 0 19.0976-47.5136 238.0288 238.0288 0 0 0-88.832-17.1008h-215.04c3.4816-39.936 15.36-69.2736 35.5328-87.3472a84.8896 84.8896 0 0 1 61.44-20.48 25.6 25.6 0 0 0 6.4-50.7904 137.472 137.472 0 0 0-101.1712 32.3072c-31.5392 27.6992-49.5104 70.0928-53.6064 126.208H292.864a238.9504 238.9504 0 0 0-238.6944 238.7968v358.8608a130.9696 130.9696 0 0 0 130.816 130.816h60.1088A131.1232 131.1232 0 0 0 363.776 870.4c24.576-51.2 82.7392-84.5312 148.48-84.5312s123.392 33.024 148.224 84.5312a131.072 131.072 0 0 0 118.6816 75.8784h58.4192a130.9696 130.9696 0 0 0 130.816-130.816V456.448a25.6 25.6 0 0 0-25.856-25.6z" fill="#585266" p-id="1082"></path></svg>